<svg width="120" height="40" viewBox="0 0 120 40" fill="none" xmlns="http://www.w3.org/2000/svg">
  <path d="M20 8C11.16 8 4 15.16 4 24C4 32.84 11.16 40 20 40C28.84 40 36 32.84 36 24H28C28 28.42 24.42 32 20 32C15.58 32 12 28.42 12 24C12 19.58 15.58 16 20 16C22.21 16 24.21 16.79 25.78 18.36L28.36 15.78C26.05 13.47 23.17 12 20 12C16.83 12 13.95 13.47 11.64 15.78C9.33 18.09 7.86 20.97 7.86 24C7.86 27.03 9.33 29.91 11.64 32.22C13.95 34.53 16.83 36 20 36C23.17 36 26.05 34.53 28.36 32.22C30.67 29.91 32.14 27.03 32.14 24C32.14 23.31 32.07 22.64 31.93 22H24V24Z" fill="currentColor"/>
  <path d="M48 16H52V20H52.08C52.72 18.8 54.24 16 57.6 16C61.84 16 64 19.04 64 22.88V32H60V23.52C60 21.28 59.04 19.68 56.64 19.68C54.08 19.68 52 21.6 52 24.64V32H48V16Z" fill="currentColor"/>
  <path d="M68 24C68 19.04 71.36 16 75.52 16C79.68 16 83.04 19.04 83.04 24C83.04 28.96 79.68 32 75.52 32C71.36 32 68 28.96 68 24ZM79.04 24C79.04 21.12 77.28 19.36 75.52 19.36C73.76 19.36 72 21.12 72 24C72 26.88 73.76 28.64 75.52 28.64C77.28 28.64 79.04 26.88 79.04 24Z" fill="currentColor"/>
  <path d="M86 24C86 19.04 89.36 16 93.52 16C96.48 16 98.4 17.6 99.36 19.52V16H103.36V32H99.36V28.48C98.4 30.4 96.48 32 93.52 32C89.36 32 86 28.96 86 24ZM99.36 24C99.36 21.12 97.6 19.36 95.52 19.36C93.44 19.36 90.64 21.12 90.64 24C90.64 26.88 93.44 28.64 95.52 28.64C97.6 28.64 99.36 26.88 99.36 24Z" fill="currentColor"/>
</svg>